<svg width="512" height="512" viewBox="0 0 512 512" fill="none" xmlns="http://www.w3.org/2000/svg">
  <!-- Background circle -->
  <circle cx="256" cy="256" r="240" fill="url(#gradient)" />
  
  <!-- Chat bubble icon -->
  <g transform="translate(156, 156)">
    <!-- Main chat bubble -->
    <path d="M40 20C40 8.95 31.05 0 20 0H20C8.95 0 0 8.95 0 20V120C0 131.05 8.95 140 20 140H40V160L80 140H160C171.05 140 180 131.05 180 120V20C180 8.95 171.05 0 160 0H40V20Z" fill="white" />
    
    <!-- AI dots pattern -->
    <circle cx="45" cy="50" r="8" fill="#1976d2" />
    <circle cx="90" cy="50" r="8" fill="#1976d2" opacity="0.7" />
    <circle cx="135" cy="50" r="8" fill="#1976d2" opacity="0.4" />
    
    <!-- Conversation lines -->
    <rect x="30" y="80" width="80" height="4" rx="2" fill="#1976d2" opacity="0.6" />
    <rect x="30" y="95" width="60" height="4" rx="2" fill="#1976d2" opacity="0.4" />
    
    <!-- Small response bubble -->
    <path d="M120 90C120 85.58 116.42 82 112 82H92C87.58 82 84 85.58 84 90V104C84 108.42 87.58 112 92 112H100L108 118V112H112C116.42 112 120 108.42 120 104V90Z" fill="#764ba2" />
  </g>
  
  <!-- Forge branding element -->
  <g transform="translate(340, 340)">
    <rect x="0" y="0" width="120" height="24" rx="12" fill="rgba(255,255,255,0.9)" />
    <text x="60" y="16" text-anchor="middle" fill="#1976d2" font-family="Arial, sans-serif" font-size="12" font-weight="600">FORGE</text>
  </g>
  
  <!-- Gradient definitions -->
  <defs>
    <linearGradient id="gradient" x1="0%" y1="0%" x2="100%" y2="100%">
      <stop offset="0%" style="stop-color:#667eea;stop-opacity:1" />
      <stop offset="100%" style="stop-color:#764ba2;stop-opacity:1" />
    </linearGradient>
  </defs>
</svg>